<svg width="74" height="73" viewBox="0 0 74 73" fill="none" xmlns="http://www.w3.org/2000/svg">
<path d="M72.0147 36.5012C72.0147 55.9079 56.284 71.6386 36.8787 71.6386C17.472 71.6386 1.74268 55.9079 1.74268 36.5012C1.74268 17.0959 17.472 1.36394 36.8787 1.36394C56.284 1.36394 72.0147 17.0959 72.0147 36.5012" fill="#F9F9F9"/>
<path d="M36.8786 2.69725C18.24 2.69725 3.07597 17.8612 3.07597 36.5012C3.07597 55.1399 18.24 70.3053 36.8786 70.3053C55.5173 70.3053 70.6813 55.1399 70.6813 36.5012C70.6813 17.8612 55.5173 2.69725 36.8786 2.69725ZM36.8786 72.9719C16.7693 72.9719 0.409302 56.6106 0.409302 36.5012C0.409302 16.3919 16.7693 0.030587 36.8786 0.030587C56.988 0.030587 73.348 16.3919 73.348 36.5012C73.348 56.6106 56.988 72.9719 36.8786 72.9719Z" fill="#282828"/>
<path d="M44.884 40.6252C42.6667 44.5439 37.6933 45.9239 33.7707 43.7092C29.852 41.4919 28.472 36.52 30.6893 32.5986C32.904 28.6786 37.8787 27.2946 41.7987 29.5119C45.7174 31.7306 47.1013 36.7052 44.884 40.6252" fill="#F9F9F9"/>
<path d="M37.7986 29.1186C37.1266 29.1186 36.4493 29.2107 35.7826 29.396C33.8559 29.9307 32.2519 31.1853 31.2693 32.9267C29.2373 36.52 30.5066 41.096 34.0986 43.1293C37.692 45.16 42.2706 43.8906 44.3039 40.2973C46.3359 36.7053 45.0652 32.128 41.4706 30.092C40.3306 29.448 39.072 29.1186 37.7986 29.1186ZM37.7679 45.4293C36.2999 45.4293 34.8106 45.0626 33.4426 44.2906C29.2092 41.8946 27.7146 36.5026 30.1092 32.2706C31.2666 30.2199 33.1546 28.7426 35.4253 28.1106C37.6959 27.4786 40.076 27.7706 42.1266 28.9306C46.3613 31.3293 47.8586 36.7226 45.4639 40.9533C43.8439 43.8173 40.8479 45.4293 37.7679 45.4293Z" fill="#282828"/>
</svg>
