<svg width="174" height="216" viewBox="0 0 174 216" fill="none" xmlns="http://www.w3.org/2000/svg">
<path d="M124.288 60.4493C124.103 60.3439 123.911 60.2666 123.713 60.2079L123.697 60.2012L123.357 60.1306L123.209 60.1012H123.193L123.175 60.0999H123.157L123.14 60.0986H123.124H123.107L123.088 60.0972H123.072H123.055L123.037 60.0959H123.021H123.004L122.987 60.0946H122.969L122.953 60.0933H122.935H122.919L122.901 60.0919H122.885L122.867 60.0906H122.851H122.835H122.833L122.817 60.0892H122.813H122.801L122.783 60.0879L122.729 60.0919L122.669 60.0933L122.656 60.0959L122.64 60.0986L122.628 60.0999L122.613 60.1026L122.599 60.1053L122.584 60.1066L122.571 60.1092L122.557 60.1119L122.543 60.1133L122.528 60.1159L122.515 60.1186L122.501 60.1199L122.485 60.1226L122.472 60.1239L122.459 60.1266L122.444 60.1293L122.429 60.1306L122.417 60.1333L122.403 60.1346L122.388 60.1372L122.375 60.1386L122.361 60.1399L122.347 60.1426L122.332 60.1439L122.319 60.1466L122.228 60.1719L122.141 60.1892L122.132 60.1933L122.12 60.1959L122.109 60.1999L122.099 60.2039L122.087 60.2079L122.077 60.2119L122.067 60.2146L122.055 60.2186L122.044 60.2226L122.033 60.2266L122.023 60.2306L122.012 60.2333L122.001 60.2372L121.991 60.2413L121.979 60.2452L121.969 60.2493L121.959 60.2506L121.947 60.2546L121.936 60.2586L121.924 60.2626L121.915 60.2666L121.904 60.2693L121.893 60.2732L121.883 60.2773L121.871 60.2812L121.748 60.3413L121.64 60.3826L121.633 60.3866L121.627 60.3906L121.619 60.3959L121.611 60.3999L121.603 60.4039L121.595 60.4079L121.587 60.4133L121.581 60.4172L121.573 60.4199L121.565 60.4239L121.557 60.4279L121.549 60.4333L121.543 60.4372L121.535 60.4413L121.528 60.4452L121.52 60.4506L121.512 60.4546L121.505 60.4586L121.496 60.4626L121.489 60.4666L121.481 60.4719L121.473 60.4746L121.468 60.4786L121.46 60.4826L121.452 60.4866L121.297 60.5972L121.183 60.6706L121.179 60.6746L121.175 60.6773L121.169 60.6812L121.164 60.6853L121.16 60.6892L121.156 60.6933L121.151 60.6959L121.145 60.6999L121.141 60.7039L121.137 60.7079L121.133 60.7119L121.129 60.7146L121.124 60.7186L121.119 60.7226L121.115 60.7266L121.109 60.7306L121.105 60.7346L121.101 60.7372L121.096 60.7413L121.091 60.7452L121.087 60.7493L121.084 60.7519L121.079 60.7559L121.073 60.7586L121.069 60.7626L120.883 60.9532L120.783 61.0479L120.78 61.0506L120.779 61.0532L120.776 61.0546L120.775 61.0573L120.772 61.0599L120.771 61.0626L120.768 61.0653L120.767 61.0666L120.764 61.0693L120.763 61.0719L120.761 61.0732L120.759 61.0759L120.756 61.0786V61.0799L120.753 61.0826L120.751 61.0839L120.749 61.0866L120.748 61.0892L120.747 61.0906L120.744 61.0946L120.741 61.0959L120.74 61.0986L120.737 61.1012L120.736 61.1039L120.733 61.1053C120.631 61.2306 120.537 61.3652 120.456 61.5119L87.3399 120.084C82.2599 129.067 75.9599 137.289 68.6119 144.531L21.6399 190.805C21.5026 190.941 21.3799 191.088 21.2759 191.244C20.5452 192.331 20.6519 193.817 21.6079 194.781C21.9173 195.095 22.2813 195.32 22.6719 195.459C22.8119 195.509 22.9573 195.547 23.1026 195.573L23.1146 195.576L23.2586 195.58C24.0852 195.684 24.9466 195.439 25.5853 194.809L72.5573 148.536C80.2799 140.928 86.8972 132.289 92.2332 122.851L125.349 64.2759C126.115 62.9252 125.637 61.2093 124.288 60.4493" fill="#F9F9F9"/>
<path d="M122.641 58.7626H122.624H122.641ZM23.2627 194.245L23.4053 194.253C23.8893 194.313 24.3346 194.171 24.6506 193.86L71.6213 147.587C79.252 140.069 85.7986 131.525 91.0733 122.195L124.188 63.6199C124.383 63.2759 124.432 62.8773 124.327 62.4986C124.221 62.1186 123.975 61.8039 123.633 61.6106L123.629 61.6079L123.332 61.4853L123.289 61.4719L123.161 61.4493L123.128 61.4439L123.101 61.4452L123.085 61.4426L123.052 61.4452L122.832 61.4279L121.927 61.8039L121.827 61.9053L121.561 62.4346H121.465L88.5013 120.74C83.3626 129.825 76.9866 138.149 69.548 145.48L22.5773 191.753L22.3827 191.987C21.992 192.568 22.064 193.349 22.5547 193.843C22.716 194.007 22.9053 194.127 23.116 194.201L23.2627 194.245ZM23.632 196.936C23.4533 196.936 23.2733 196.924 23.092 196.903L22.9333 196.897L22.7759 196.868C22.5866 196.829 22.4013 196.779 22.2187 196.712C21.6347 196.505 21.1067 196.171 20.66 195.719C19.2787 194.327 19.0733 192.132 20.1706 190.5C20.3226 190.272 20.5013 190.056 20.7039 189.856L67.6759 143.583C74.9386 136.423 81.164 128.297 86.18 119.427L119.295 60.8559C119.388 60.6892 119.493 60.5293 119.607 60.3799L119.767 60.1786L120.105 59.7266H120.22L120.549 59.4039L121.029 59.1972L121.255 59.1012L121.383 59.0399L121.967 58.8639V58.8612L122.767 58.7559H122.844L123.451 58.7892L123.588 58.8159C123.767 58.8479 123.925 58.8773 124.083 58.9239L124.208 58.9666C124.475 59.0533 124.717 59.1599 124.947 59.2906C125.909 59.8333 126.6 60.7186 126.896 61.7853C127.193 62.8533 127.055 63.9719 126.508 64.9333L93.3946 123.507C87.9973 133.053 81.3013 141.795 73.492 149.487L26.5213 195.759C25.748 196.523 24.716 196.936 23.632 196.936" fill="#282828"/>
<path d="M133.195 84.7267L98.928 65.3547L129.924 10.5253L164.191 29.8987L133.195 84.7267Z" fill="#A46700"/>
<path d="M133.615 84.0065C127.713 80.6705 121.811 77.3345 115.911 73.9972C112.393 72.0092 108.876 70.0212 105.36 68.0319C104.013 67.2706 102.487 66.0492 101.013 65.5759C99.5147 65.0932 99.8227 63.9719 99.6654 65.7425C99.7747 64.5239 101.425 62.6292 102.004 61.6052C103.769 58.4839 105.533 55.3612 107.299 52.2412C112.039 43.8559 116.78 35.4705 121.52 27.0839C124.219 22.3119 126.716 15.2772 130.483 11.2305C130.969 10.7092 128.897 11.1319 129.941 11.4906C130.892 11.8199 131.844 12.5679 132.719 13.0612C136.411 15.1479 140.101 17.2359 143.793 19.3225C150.003 22.8332 157.805 25.8505 163.333 30.3705C164.177 31.0598 163.671 28.7919 163.188 29.9785C162.917 30.6412 162.453 31.2785 162.103 31.8972C160.381 34.9412 158.661 37.9852 156.94 41.0292C148.785 55.4546 140.629 69.8799 132.473 84.3052C131.945 85.2412 133.384 86.0826 133.913 85.1466C144.247 66.8706 154.579 48.5946 164.911 30.3186C165.129 29.9306 165.008 29.4025 164.611 29.1785C153.189 22.7198 141.767 16.2625 130.345 9.80521C129.959 9.58521 129.429 9.70651 129.205 10.1038C118.873 28.3798 108.54 46.6572 98.208 64.9332C97.9894 65.3199 98.1107 65.8492 98.508 66.0732C109.929 72.5305 121.352 78.9879 132.773 85.4466C133.708 85.9746 134.548 84.5345 133.615 84.0065" fill="#282828"/>
<path d="M144.884 40.6252C142.667 44.5439 137.693 45.9239 133.771 43.7092C129.852 41.4919 128.472 36.52 130.689 32.5986C132.904 28.6786 137.879 27.2946 141.799 29.5119C145.717 31.7306 147.101 36.7052 144.884 40.6252" fill="#F9F9F9"/>
<path d="M137.799 29.1186C137.127 29.1186 136.449 29.2107 135.783 29.396C133.856 29.9307 132.252 31.1853 131.269 32.9267C129.237 36.52 130.507 41.096 134.099 43.1293C137.692 45.16 142.271 43.8906 144.304 40.2973C146.336 36.7053 145.065 32.128 141.471 30.092C140.331 29.448 139.072 29.1186 137.799 29.1186ZM137.768 45.4293C136.3 45.4293 134.811 45.0626 133.443 44.2906C129.209 41.8946 127.715 36.5026 130.109 32.2706C131.267 30.2199 133.155 28.7426 135.425 28.1106C137.696 27.4786 140.076 27.7706 142.127 28.9306C146.361 31.3293 147.859 36.7226 145.464 40.9533C143.844 43.8173 140.848 45.4293 137.768 45.4293Z" fill="#282828"/>
<path d="M33.452 194.485L33.4253 194.459L33.2973 194.321L33.1746 194.191L32.9373 193.937L32.8213 193.813L32.7053 193.691L32.5786 193.553L32.4627 193.429L32.3466 193.305L32.2173 193.169L32.1013 193.045L31.9613 192.896L31.8586 192.785L31.716 192.636L31.2786 192.168L31.08 191.955L31.0306 191.904L30.8919 191.755L30.6213 191.468L30.4653 191.3L30.1706 190.985L30.124 190.935L29.5293 190.303L29.28 190.035L28.9173 189.647L28.0613 188.736L28.008 188.68L27.8746 188.536L27.8426 188.501L27.7759 188.431L27.6119 188.256L27.5453 188.187L27.48 188.116L27.4146 188.045L27.192 187.807L27.052 187.659L26.9853 187.588L26.7306 187.315L26.1987 186.751L25.4026 185.9L25.0746 185.548L24.68 185.129L24.6453 185.092L24.1653 184.58L23.9906 184.395L23.9013 184.299L23.8186 184.211L22.992 183.329L22.9586 183.293L2.22131 202.735L2.29195 202.809L2.39866 202.924L2.89332 203.453L3.28394 203.868L3.42398 204.02L3.61728 204.225L3.67327 204.284L3.77861 204.397L3.87861 204.504L3.91995 204.548L4.03199 204.668L4.27463 204.925L4.33596 204.992L4.41728 205.077L4.49996 205.167L4.7706 205.453L4.8053 205.493L4.93459 205.627L4.99462 205.693L5.21597 205.933L5.2773 206L5.49599 206.227L5.56129 206.293L5.77594 206.533L5.84397 206.6L6.21194 207L6.25198 207.04L6.49599 207.293L6.53596 207.333L6.79332 207.613L6.81864 207.64L7.10263 207.947L7.18798 208.04L8.19065 209.107L10.4679 211.533L11.4893 212.627L11.7066 212.853L11.7253 212.88L11.7826 212.933L11.8173 212.973L11.8679 213.027L12.5546 213.76L12.6106 213.827L12.6546 213.867L12.7106 213.933L33.452 194.485" fill="#F9F9F9"/>
<path d="M5.38664 204.164L12.772 212.04L31.5666 194.424L26.9 189.445L27.776 188.431L26.804 189.343L22.8987 185.177L4.10532 202.796L5.24797 204.015L4.4173 205.079L5.38664 204.164ZM12.6586 215.8L0.41333 202.744L1.30799 201.761L23.0253 181.404L24.792 183.299L23.9907 184.395L24.9627 183.481L28.3866 187.135L27.5453 188.187L28.512 187.267L35.3093 194.52L34.3627 195.459L12.6586 215.8" fill="#282828"/>
</svg>
